<?xml version="1.0" encoding="UTF-8" standalone="no"?>
<!-- Created with Inkscape (http://www.inkscape.org/) -->

<svg
   width="300"
   height="300"
   viewBox="0 0 79.374997 79.375002"
   version="1.1"
   id="svg560"
   inkscape:version="1.1.2 (b8e25be8, 2022-02-05)"
   sodipodi:docname="follow.svg"
   xmlns:inkscape="http://www.inkscape.org/namespaces/inkscape"
   xmlns:sodipodi="http://sodipodi.sourceforge.net/DTD/sodipodi-0.dtd"
   xmlns="http://www.w3.org/2000/svg"
   xmlns:svg="http://www.w3.org/2000/svg">
  <sodipodi:namedview
     id="namedview562"
     pagecolor="#ffffff"
     bordercolor="#111111"
     borderopacity="1"
     inkscape:pageshadow="0"
     inkscape:pageopacity="0"
     inkscape:pagecheckerboard="1"
     inkscape:document-units="px"
     showgrid="false"
     inkscape:zoom="0.77771465"
     inkscape:cx="136.93969"
     inkscape:cy="307.95357"
     inkscape:window-width="1312"
     inkscape:window-height="1051"
     inkscape:window-x="2181"
     inkscape:window-y="170"
     inkscape:window-maximized="0"
     inkscape:current-layer="layer1"
     units="px" />
  <defs
     id="defs557" />
  <g
     inkscape:label="Layer 1"
     inkscape:groupmode="layer"
     id="layer1">
    <path
       d="m 52.025284,52.476753 c -4.704797,-4.757229 -11.234765,-7.704012 -18.454183,-7.704012 -14.334017,0 -25.954594,11.620576 -25.954594,25.954595 0,1.483334 -1.202397,2.684478 -2.6844782,2.684478 -1.4833302,0 -2.6857261,-1.201144 -2.6857261,-2.684478 0,-17.300616 14.0255593,-31.324894 31.3248923,-31.324894 9.239558,0 17.544168,3.999359 23.277577,10.362154 -1.814215,0.538141 -3.454998,1.475841 -4.823386,2.711961 z M 33.571101,37.61213 c -10.379732,0 -18.793979,-8.41425 -18.793979,-18.793975 0,-10.3810057 8.414247,-18.79525496 18.793979,-18.79525496 10.381006,0 18.795241,8.41424926 18.795241,18.79525496 0,10.379725 -8.414235,18.793975 -18.795241,18.793975 z m 0,-5.369019 c 7.41537,0 13.42495,-6.010867 13.42495,-13.424956 0,-7.415369 -6.00958,-13.424953 -13.42495,-13.424953 -7.414094,0 -13.424956,6.009584 -13.424956,13.424953 0,7.414089 6.010862,13.424956 13.424956,13.424956 z m 26.8499,47.434831 c -9.885238,0 -17.899936,-8.013412 -17.899936,-17.899938 0,-9.886517 8.014698,-17.899936 17.899936,-17.899936 9.886518,0 17.899936,8.013419 17.899936,17.899936 0,9.886526 -8.013418,17.899938 -17.899936,17.899938 z m 0,-5.3703 c 6.920882,0 12.530909,-5.610028 12.530909,-12.529638 0,-6.919609 -5.610027,-12.529637 -12.530909,-12.529637 -6.91961,0 -12.529638,5.610028 -12.529638,12.529637 0,6.91961 5.610028,12.529638 12.529638,12.529638 z m 2.685726,-15.662448 c 0,0.247222 0.199769,0.448238 0.446981,0.448238 h 2.23749 c 1.483333,0 2.685727,1.201145 2.685727,2.684479 0,1.483325 -1.202394,2.684478 -2.685727,2.684478 h -2.23749 c -0.24722,0 -0.446981,0.201025 -0.446981,0.448238 v 2.23748 c 0,1.482093 -1.202401,2.684495 -2.685726,2.684495 -1.482084,0 -2.684486,-1.202402 -2.684486,-2.684495 v -2.23748 c 0,-0.24723 -0.199768,-0.448238 -0.446981,-0.448238 h -2.237497 c -1.483333,0 -2.685727,-1.201153 -2.685727,-2.684478 0,-1.483334 1.202394,-2.684479 2.685727,-2.684479 h 2.237497 c 0.247221,0 0.446981,-0.201031 0.446981,-0.448238 v -2.237488 c 0,-1.482092 1.202402,-2.684478 2.684486,-2.684478 1.483325,0 2.685726,1.202386 2.685726,2.684478 z"
       id="path555"
       style="stroke-width:0.239731" />
  </g>
</svg>
